<?xml version="1.0" encoding="iso-8859-1"?>
<!-- Generator: Adobe Illustrator 19.0.0, SVG Export Plug-In . SVG Version: 6.00 Build 0)  -->
<svg version="1.1" id="Capa_1" xmlns="http://www.w3.org/2000/svg" xmlns:xlink="http://www.w3.org/1999/xlink" x="0px" y="0px"
	 viewBox="0 0 512 512" style="enable-background:new 0 0 512 512;" xml:space="preserve">
<g>
	<g>
		<path d="M467,0H45C20.187,0,0,20.187,0,45v392c0,24.813,20.187,45,45,45h47.58c6.192,17.458,22.865,30,42.42,30h242
			c19.555,0,36.228-12.542,42.42-30H467c24.813,0,45-20.187,45-45V45C512,20.187,491.813,0,467,0z M135,482c-8.271,0-15-6.729-15-15
			v-12.42c12.764,4.527,22.893,14.656,27.42,27.42H135z M392,467c0,8.271-6.729,15-15,15h-12.42
			c4.527-12.764,14.656-22.893,27.42-27.42V467z M392,423.509c-29.344,5.98-52.51,29.147-58.491,58.491H178.491
			c-5.98-29.344-29.147-52.51-58.491-58.491V392h61.509c6.968,34.192,37.271,60,73.491,60c20.029,0,39.133-7.717,53.791-21.731
			c11.164-10.672,18.582-23.912,21.632-38.269H392V423.509z M212.58,391.9h86.618C292.582,409.18,275.014,422,255,422
			C235.445,422,218.772,409.358,212.58,391.9z M482,437c0,8.271-6.729,15-15,15h-45v-60h15c8.284,0,15-6.716,15-15s-6.716-15-15-15
			c-18.289,0-350.195,0-362,0c-8.284,0-15,6.716-15,15s6.716,15,15,15h15v60H45c-8.271,0-15-6.729-15-15V332h452V437z M482,302H30
			V45c0-8.271,6.729-15,15-15h422c8.271,0,15,6.729,15,15V302z"/>
	</g>
</g>
<g>
	<g>
		<path d="M255,60H75c-8.284,0-15,6.716-15,15v180c0,8.284,6.716,15,15,15h180c8.284,0,15-6.716,15-15V75
			C270,66.716,263.284,60,255,60z M240,240H90V90h150V240z"/>
	</g>
</g>
<g>
	<g>
		<path d="M437,60H317c-8.284,0-15,6.716-15,15s6.716,15,15,15h120c8.284,0,15-6.716,15-15S445.284,60,437,60z"/>
	</g>
</g>
<g>
	<g>
		<path d="M347,120h-30c-8.284,0-15,6.716-15,15s6.716,15,15,15h30c8.284,0,15-6.716,15-15S355.284,120,347,120z"/>
	</g>
</g>
<g>
	<g>
		<path d="M347,180h-30c-8.284,0-15,6.716-15,15s6.716,15,15,15h30c8.284,0,15-6.716,15-15S355.284,180,347,180z"/>
	</g>
</g>
<g>
	<g>
		<path d="M347,240h-30c-8.284,0-15,6.716-15,15s6.716,15,15,15h30c8.284,0,15-6.716,15-15S355.284,240,347,240z"/>
	</g>
</g>
<g>
	<g>
		<path d="M437,120h-30c-8.284,0-15,6.716-15,15s6.716,15,15,15h30c8.284,0,15-6.716,15-15S445.284,120,437,120z"/>
	</g>
</g>
<g>
	<g>
		<path d="M437,180h-30c-8.284,0-15,6.716-15,15s6.716,15,15,15h30c8.284,0,15-6.716,15-15S445.284,180,437,180z"/>
	</g>
</g>
<g>
	<g>
		<path d="M437,240h-30c-8.284,0-15,6.716-15,15s6.716,15,15,15h30c8.284,0,15-6.716,15-15S445.284,240,437,240z"/>
	</g>
</g>
<g>
</g>
<g>
</g>
<g>
</g>
<g>
</g>
<g>
</g>
<g>
</g>
<g>
</g>
<g>
</g>
<g>
</g>
<g>
</g>
<g>
</g>
<g>
</g>
<g>
</g>
<g>
</g>
<g>
</g>
</svg>
