<svg id="Capa_1" enable-background="new 0 0 512 512" height="24" viewBox="0 0 512 512" width="24" xmlns="http://www.w3.org/2000/svg"><g><path d="m467 41h-422c-24.813 0-45 20.187-45 45v164c0 24.813 20.187 45 45 45h52v161c0 8.284 6.716 15 15 15h288c8.284 0 15-6.716 15-15v-161h52c24.813 0 45-20.187 45-45v-164c0-24.813-20.187-45-45-45zm-340 94h34v306h-34zm258 306h-194v-306h194zm97-191c0 8.271-6.729 15-15 15h-52v-130h17c8.284 0 15-6.716 15-15s-6.716-15-15-15c-22.57 0-337.245 0-352 0-8.284 0-15 6.716-15 15s6.716 15 15 15h17v130h-52c-8.271 0-15-6.729-15-15v-164c0-8.271 6.729-15 15-15h422c8.271 0 15 6.729 15 15z"/><path d="m336 345c-8.284 0-15 6.716-15 15v32c0 8.284 6.716 15 15 15s15-6.716 15-15v-32c0-8.284-6.716-15-15-15z"/><path d="m336 249c-8.284 0-15 6.716-15 15v32c0 8.284 6.716 15 15 15s15-6.716 15-15v-32c0-8.284-6.716-15-15-15z"/><path d="m336 153c-8.284 0-15 6.716-15 15v32c0 8.284 6.716 15 15 15s15-6.716 15-15v-32c0-8.284-6.716-15-15-15z"/></g></svg>