<svg id="Capa_1" enable-background="new 0 0 512 512" height="512" viewBox="0 0 512 512" width="512" xmlns="http://www.w3.org/2000/svg"><g><path d="m255.499 273.399c24.848 0 45.063-20.187 45.063-45s-20.215-45-45.063-45-45.063 20.187-45.063 45 20.215 45 45.063 45zm0-60c8.306 0 15.063 6.729 15.063 15s-6.757 15-15.063 15-15.063-6.729-15.063-15 6.757-15 15.063-15z"/><path d="m15 293.697h15.563v203.303c0 8.284 6.716 15 15 15h420.873c8.284 0 15-6.716 15-15v-203.303h15.564c8.284 0 15-6.716 15-15v-50c0-6.254-3.881-11.852-9.737-14.046l-231.263-86.65v-38.001h72.376c8.284 0 15-6.716 15-15v-60c0-8.284-6.716-15-15-15h-87.376c-8.284 0-15 6.716-15 15v113.001l-231.263 86.65c-5.856 2.194-9.737 7.792-9.737 14.046v50c0 8.284 6.716 15 15 15zm135.312 188.303h-30.124v-113.303c0-8.271 6.729-15 15-15h.124c8.271 0 15 6.729 15 15zm90.125 0v-133.601c0-8.271 6.729-15 15-15h.125c8.271 0 15 6.729 15 15v133.601zm151.376 0h-30.124v-113.303c0-8.271 6.729-15 15-15h.124c8.271 0 15 6.729 15 15zm-120.813-452h57.376v30h-57.376zm-241 209.095 226-84.678 226 84.678v24.602c-12.267 0-139.341 0-146.46 0-8.284 0-15 6.716-15 15s6.716 15 15 15h115.896v188.303h-29.624v-113.303c0-24.813-20.187-45-45-45h-.124c-24.813 0-45 20.187-45 45v113.303h-31.127v-133.601c0-24.813-20.187-45-45-45h-.125c-24.813 0-45 20.187-45 45v133.601h-30.125v-113.303c0-24.813-20.187-45-45-45h-.124c-24.813 0-45 20.187-45 45v113.303h-29.624v-188.303h114.895c8.284 0 15-6.716 15-15s-6.716-15-15-15c-5.884 0-139.087 0-145.458 0z"/></g></svg>