<svg id="Capa_1" enable-background="new 0 0 510 510" height="512" viewBox="0 0 510 510" width="512" xmlns="http://www.w3.org/2000/svg"><g><path d="m365 285v15h105v-15c0-74.701-60.774-135.475-135.475-135.475l-5.062.053c-6.52.068-12.651-2.416-17.282-6.997-4.631-4.582-7.181-10.693-7.181-17.207v-50.374h-45v-30h75v-30h-75v-15h-30v15h-75v30h75v30h-45v46.664c0 15.625-12.711 28.336-28.336 28.336h-46.874c-2.261-25.189-23.478-45-49.245-45h-40.545v195h40.544c25.767 0 46.984-19.811 49.245-45h225.211c16.542 0 30 13.458 30 30zm-150-163.336v-16.664h60v20.374c0 14.588 5.711 28.273 16.082 38.533 10.37 10.26 24.094 15.833 38.702 15.669l4.82-.051c53.036.037 97.034 39.417 104.333 90.475h-45.834c-6.678-25.85-30.195-45-58.102-45h-225.001v-45h46.664c32.167 0 58.336-26.169 58.336-58.336zm-135 128.88c0 10.728-8.728 19.456-19.456 19.456h-10.544v-135h10.544c10.728 0 19.456 8.728 19.456 19.456z"/><path d="m459.57 374.835c-14.085-19.092-27.982-34.136-28.567-34.767l-11.003-11.875-11.003 11.875c-.585.631-14.482 15.675-28.567 34.767-20.476 27.754-30.43 49.07-30.43 65.165 0 38.598 31.402 70 70 70s70-31.402 70-70c0-16.095-9.954-37.411-30.43-65.165zm-39.57 105.165c-22.056 0-40-17.944-40-40 0-3.283 1.761-16.386 24.413-47.141 5.495-7.459 11.034-14.336 15.625-19.817 18.916 22.625 39.962 53.063 39.962 66.958 0 22.056-17.944 40-40 40z"/></g></svg>